<svg width="18" height="6" viewBox="0 0 18 6" fill="none" xmlns="http://www.w3.org/2000/svg">
<path d="M17.625 1.78125L12.9 5.5625C12.545 5.84588 12.1042 6.00016 11.65 6H0.5C0.367392 6 0.240215 5.94732 0.146447 5.85356C0.0526784 5.75979 0 5.63261 0 5.5V2.5C0 2.36739 0.0526784 2.24022 0.146447 2.14645C0.240215 2.05268 0.367392 2 0.5 2H2.23125L3.68438 0.821876C4.3392 0.290549 5.15673 0.000388159 6 1.69563e-06H11C11.1458 -0.000266707 11.2898 0.0313323 11.4221 0.0925863C11.5543 0.15384 11.6716 0.243269 11.7657 0.354607C11.8598 0.465946 11.9284 0.596504 11.9667 0.737139C12.005 0.877773 12.0121 1.02508 11.9875 1.16875C11.9062 1.65938 11.4437 2 10.9469 2H8.5C8.36739 2 8.24021 2.05268 8.14645 2.14645C8.05268 2.24022 8 2.36739 8 2.5C8 2.63261 8.05268 2.75979 8.14645 2.85356C8.24021 2.94732 8.36739 3 8.5 3H12.1969C12.6513 3.00118 13.0924 2.84679 13.4469 2.5625L16.3344 0.253127C16.7219 -0.0593731 17.2969 -0.0812481 17.6656 0.253127C17.7744 0.349921 17.8606 0.469287 17.9185 0.602889C17.9763 0.73649 18.0042 0.881104 18.0004 1.02663C17.9965 1.17215 17.9609 1.31508 17.8961 1.44542C17.8312 1.57576 17.7387 1.69037 17.625 1.78125Z" fill="#213F7D"/>
</svg>
